PathFileType	4	(x/y/z)	S05_PSF_T05
DataRate	CameraRate	NumFrames	NumMarkers	Units	OrigDataRate	OrigDataStartFrame	OrigNumFrames
240	240	11	50	mm	240	390	445
Frame#	Time	Sternum			R.Acromium			L.Acromium			Top.Head			R.ASIS			L.ASIS			R.PSIS			L.PSIS			R.Great.Tro			L.Great.Tro			R.Iliac.Crest			L.Iliac.Crest			V.Sacral			R.Thigh.Upper.Post			R.Thigh.Lower.Ant			R.Thigh.Lower.Post			R.Thigh.Upper.Ant			R.Knee.Lat			R.Knee.Med			R.Shank.Upper.Post			R.Shank.Lower.Ant			R.Shank.Lower.Post			R.Shank.Upper.Ant			R.Ankle.Lat			R.Ankle.Med			R.Heel.Upper			R.Heel.Med			R.Heel.Lat			R.Toe.Lat			R.Toe.Med			R.Toe.Tip			L.Thigh.Upper.Post			L.Thigh.Lower.Ant			L.Thigh.Lower.Post			L.Thigh.Upper.Ant			L.Knee.Lat			L.Shank.Upper.Post			L.Shank.Lower.Ant			L.Shank.Lower.Post			L.Shank.Upper.Ant			L.Ankle.Lat			L.Ankle.Med			L.Heel.Upper			L.Heel.Med			L.Heel.Lat			L.Toe.Lat			L.Toe.Med			L.Toe.Tip			Cervical.Spine			Back			
		X1	Y1	Z1	X2	Y2	Z2	X3	Y3	Z3	X4	Y4	Z4	X5	Y5	Z5	X6	Y6	Z6	X7	Y7	Z7	X8	Y8	Z8	X9	Y9	Z9	X10	Y10	Z10	X11	Y11	Z11	X12	Y12	Z12	X13	Y13	Z13	X14	Y14	Z14	X15	Y15	Z15	X16	Y16	Z16	X17	Y17	Z17	X18	Y18	Z18	X19	Y19	Z19	X20	Y20	Z20	X21	Y21	Z21	X22	Y22	Z22	X23	Y23	Z23	X24	Y24	Z24	X25	Y25	Z25	X26	Y26	Z26	X27	Y27	Z27	X28	Y28	Z28	X29	Y29	Z29	X30	Y30	Z30	X31	Y31	Z31	X32	Y32	Z32	X33	Y33	Z33	X34	Y34	Z34	X35	Y35	Z35	X36	Y36	Z36	X37	Y37	Z37	X38	Y38	Z38	X39	Y39	Z39	X40	Y40	Z40	X41	Y41	Z41	X42	Y42	Z42	X43	Y43	Z43	X44	Y44	Z44	X45	Y45	Z45	X46	Y46	Z46	X47	Y47	Z47	X48	Y48	Z48	X49	Y49	Z49	X50	Y50	Z50	

390	1.6208	550.34	1249.7	277.87	464.71	1511.4	431.58	451.05	1530	109.53	470.42	1819.5	262.67	487.94	1000.5	405.65	481.83	1007.4	155.76	285.24	1018.9	329.82	284.02	1028.4	239.17	416.2	915.45	473.5	378.6	935.46	88.382	397.93	1085.1	448.52	393.51	1085.6	113.92	271.8	987.61	294.62	527.62	714.55	470.45	593.93	660.65	414.17	541.41	626.54	451.64	575.19	746.91	432.58	567.3	535.62	426.89	577.14	521.76	291.42	593	288.21	421.61	677.41	257.49	431.37	627.61	220.14	409.93	642.24	326.72	441.09	721.7	153.22	419.28	724.44	181.29	333.88	693.72	71.085	354.37	722.62	52.518	327.08	713.42	49.531	391.63	854.02	124.65	459.97	885.6	160.85	347.84	919.69	210.86	398.97	329.5	706.13	98.864	392.5	618.05	122.15	320.45	612.43	118.96	408.07	705.47	99.82	305.37	518.23	130.09	199.05	334.81	140.63	252.62	264.09	141.16	183.97	265.89	161.55	264.14	332.76	126.32	186.74	119.56	173.46	229.17	133.76	257.45	124.73	75.632	231.13	138.89	48.673	261.54	123.99	48.741	201.89	300.68	37.657	131.41	334.43	47.164	249.14	393.98	52.247	189.84	412.1	1558.9	274.09	291.09	1287.7	276.51
391	1.625	555.63	1248.5	278.24	470.07	1510.2	432.2	456.3	1529	110.19	475.59	1818.4	263.56	493.41	999.39	405.73	487.02	1006.5	155.83	290.57	1017.8	330.22	289.31	1027.5	239.59	421.77	914.2	473.54	383.53	934.79	88.449	403.29	1083.8	448.78	398.65	1084.7	114.2	277.13	986.54	294.97	533.11	713.33	470.17	599.05	659.33	413.54	546.74	625.29	451.39	580.44	745.62	431.94	572.88	534.65	426.6	582.18	520.59	290.96	601.05	287.52	421.85	685.87	257.73	431.43	636.37	219.76	410.2	649.94	326.62	441.11	731.36	153.77	419.41	733.59	181.79	334.02	704.17	71.153	354.69	733.26	52.868	327.36	724.2	49.864	391.94	864.16	126.72	459.93	895.14	163.16	347.65	928.88	213.59	398.68	333.61	705.74	98.863	396.23	617.37	122.12	324.15	612.05	119.01	412.12	704.74	99.772	308.57	517.88	130.17	201.02	335.13	140.77	254.1	264.07	141.25	185.49	266.34	161.69	266.09	332.64	126.42	187.19	119.96	173.62	229.81	133.93	257.6	124.97	76.109	231.34	139.09	49.119	261.75	124.12	49.225	202.1	300.72	37.67	131.46	334.59	47.042	249.14	394.12	51.981	189.82	417.42	1557.8	274.74	296.38	1286.6	276.97
392	1.6292	560.92	1247.4	278.63	475.44	1509	432.85	461.56	1528	110.87	480.76	1817.3	264.47	498.88	998.26	405.82	492.24	1005.5	155.92	295.91	1016.7	330.62	294.62	1026.5	240	427.36	912.98	473.59	388.49	934.1	88.522	408.64	1082.5	449.05	403.81	1083.8	114.47	282.47	985.46	295.32	538.75	712.23	469.91	604.36	658.16	412.95	552.27	624.16	451.14	585.83	744.48	431.33	578.63	533.76	426.35	587.44	519.52	290.59	608.84	286.86	422.03	694	257.85	431.43	644.74	219.37	410.38	657.44	326.45	441.09	740.46	154.17	419.44	742.24	182.13	334.06	713.92	71.144	354.9	743.16	53.092	327.53	734.23	50.087	392.13	873.64	128.4	459.82	904.12	165.01	347.39	937.57	215.79	398.34	337.82	705.34	98.85	400.03	616.69	122.08	327.94	611.65	119.05	416.24	703.99	99.721	311.88	517.5	130.24	203.08	335.46	140.88	255.64	264.04	141.32	187.07	266.8	161.79	268.11	332.51	126.51	187.66	120.38	173.75	230.46	134.11	257.74	125.22	76.637	231.52	139.28	49.618	261.93	124.26	49.757	202.29	300.76	37.68	131.5	334.75	46.929	249.15	394.25	51.711	189.81	422.75	1556.8	275.43	301.67	1285.6	277.45
393	1.6333	566.22	1246.2	279.04	480.81	1507.8	433.52	466.84	1527.1	111.58	485.92	1816.2	265.39	504.35	997.15	405.92	497.49	1004.6	156.02	301.25	1015.6	331.01	299.94	1025.5	240.41	432.97	911.8	473.67	393.48	933.39	88.602	413.98	1081.3	449.33	409	1082.9	114.74	287.83	984.36	295.66	544.54	711.25	469.66	609.86	657.16	412.39	558	623.17	450.91	591.37	743.48	430.76	584.55	532.95	426.14	592.91	518.55	290.3	616.37	286.23	422.15	701.79	257.83	431.37	652.72	218.95	410.49	664.74	326.2	441.04	749	154.39	419.4	750.4	182.3	334.01	722.97	71.04	354.99	752.32	53.166	327.6	743.5	50.18	392.21	882.46	129.67	459.62	912.54	166.38	347.07	945.76	217.44	397.94	342.11	704.92	98.824	403.93	615.99	122.04	331.82	611.23	119.09	420.44	703.23	99.67	315.3	517.11	130.29	205.22	335.8	140.96	257.25	264.01	141.38	188.71	267.27	161.86	270.22	332.38	126.58	188.16	120.83	173.86	231.13	134.32	257.86	125.47	77.221	231.67	139.48	50.176	262.08	124.4	50.34	202.45	300.8	37.687	131.54	334.92	46.826	249.15	394.39	51.437	189.8	428.1	1555.7	276.13	306.96	1284.5	277.92
394	1.6375	571.52	1245.1	279.48	486.19	1506.6	434.22	472.13	1526.1	112.31	491.1	1815.1	266.33	509.83	996.07	406.04	502.77	1003.7	156.13	306.6	1014.4	331.39	305.28	1024.5	240.8	438.59	910.66	473.77	398.51	932.66	88.689	419.31	1080.1	449.61	414.21	1082	115.01	293.21	983.25	296	550.47	710.39	469.43	615.57	656.33	411.86	563.93	622.31	450.68	597.05	742.64	430.23	590.62	532.22	425.96	598.59	517.7	290.09	623.63	285.62	422.21	709.24	257.66	431.24	660.3	218.51	410.51	671.85	325.85	440.94	756.96	154.43	419.26	758.06	182.29	333.86	731.3	70.826	354.97	760.73	53.072	327.56	751.99	50.129	392.19	890.63	130.5	459.35	920.39	167.24	346.68	953.47	218.52	397.47	346.49	704.5	98.782	407.91	615.28	121.99	335.78	610.79	119.12	424.72	702.47	99.621	318.82	516.69	130.33	207.44	336.15	141.01	258.92	263.98	141.41	190.42	267.76	161.9	272.41	332.24	126.64	188.69	121.31	173.93	231.81	134.55	257.95	125.74	77.865	231.78	139.66	50.797	262.2	124.55	50.978	202.58	300.85	37.691	131.58	335.08	46.733	249.15	394.52	51.159	189.79	433.46	1554.6	276.86	312.27	1283.5	278.41
395	1.6417	576.84	1243.9	279.95	491.57	1505.4	434.95	477.44	1525.1	113.07	496.27	1814	267.29	515.31	995.02	406.17	508.08	1002.7	156.25	311.96	1013.3	331.77	310.63	1023.5	241.19	444.24	909.56	473.89	403.57	931.92	88.783	424.64	1078.8	449.91	419.45	1081	115.27	298.6	982.12	296.34	556.55	709.65	469.21	621.46	655.65	411.38	570.05	621.58	450.45	602.89	741.95	429.76	596.85	531.56	425.8	604.49	516.95	289.95	630.62	285.01	422.2	716.35	257.34	431.05	667.49	218.02	410.46	678.76	325.42	440.8	764.38	154.27	419.04	765.23	182.07	333.63	738.93	70.491	354.84	768.4	52.798	327.43	759.72	49.926	392.07	898.15	130.91	458.99	927.7	167.59	346.23	960.71	219.02	396.93	350.97	704.08	98.725	411.98	614.57	121.93	339.84	610.33	119.14	429.07	701.71	99.574	322.45	516.26	130.35	209.75	336.51	141.02	260.66	263.96	141.43	192.2	268.26	161.9	274.68	332.1	126.67	189.25	121.83	173.98	232.5	134.81	258.01	126.01	78.573	231.85	139.85	51.485	262.28	124.7	51.677	202.67	300.91	37.691	131.62	335.24	46.651	249.15	394.66	50.878	189.78	438.83	1553.6	277.62	317.58	1282.5	278.89
396	1.6458	582.17	1242.7	280.44	496.96	1504.1	435.71	482.78	1524.2	113.85	501.45	1812.9	268.27	520.81	994	406.31	513.42	1001.8	156.39	317.34	1012.2	332.14	316.01	1022.4	241.56	449.92	908.51	474.03	408.67	931.17	88.884	429.96	1077.6	450.21	424.72	1080.1	115.54	304.02	981	296.67	562.76	709.03	469.01	627.55	655.12	410.94	576.35	620.97	450.22	608.88	741.39	429.34	603.22	530.97	425.67	610.58	516.31	289.88	637.34	284.4	422.14	723.15	256.86	430.79	674.29	217.47	410.33	685.47	324.88	440.61	771.24	153.91	418.74	771.92	181.65	333.3	745.86	70.032	354.62	775.34	52.337	327.21	766.69	49.568	391.87	905.05	130.87	458.57	934.47	167.41	345.71	967.5	218.94	396.32	355.55	703.65	98.651	416.14	613.85	121.87	343.99	609.85	119.16	433.51	700.95	99.533	326.19	515.82	130.36	212.13	336.89	141	262.46	263.95	141.42	194.04	268.8	161.87	277.03	331.96	126.69	189.83	122.39	173.99	233.21	135.09	258.04	126.29	79.35	231.88	140.03	52.246	262.33	124.87	52.439	202.73	300.98	37.687	131.64	335.41	46.581	249.14	394.8	50.594	189.76	444.21	1552.5	278.4	322.9	1281.5	279.38
397	1.65	587.5	1241.6	280.96	502.34	1502.9	436.49	488.14	1523.3	114.65	506.64	1811.9	269.27	526.32	993.01	406.47	518.79	1000.8	156.54	322.74	1011	332.51	321.41	1021.4	241.93	455.63	907.51	474.2	413.8	930.41	88.994	435.28	1076.5	450.52	430.02	1079.2	115.8	309.47	979.87	296.99	569.1	708.5	468.82	633.81	654.72	410.55	582.8	620.46	449.99	615.01	740.96	428.97	609.72	530.43	425.55	616.86	515.76	289.88	643.78	283.79	422.03	729.62	256.22	430.46	680.71	216.87	410.12	692	324.25	440.38	777.58	153.35	418.35	778.13	181.02	332.89	752.11	69.452	354.3	781.57	51.692	326.9	772.93	49.06	391.58	911.34	130.41	458.07	940.73	166.72	345.13	973.84	218.29	395.64	360.22	703.22	98.563	420.4	613.13	121.81	348.24	609.37	119.17	438.03	700.18	99.499	330.04	515.37	130.35	214.6	337.28	140.95	264.33	263.95	141.4	195.95	269.35	161.8	279.46	331.83	126.68	190.45	122.99	173.97	233.94	135.41	258.05	126.59	80.2	231.86	140.22	53.084	262.34	125.04	53.269	202.75	301.05	37.678	131.67	335.57	46.522	249.12	394.95	50.307	189.75	449.61	1551.5	279.21	328.23	1280.5	279.87
398	1.6542	592.85	1240.4	281.5	507.72	1501.7	437.3	493.52	1522.3	115.48	511.83	1810.8	270.28	531.86	992.07	406.65	524.21	999.88	156.71	328.17	1009.9	332.87	326.84	1020.4	242.3	461.38	906.55	474.38	418.98	929.64	89.113	440.62	1075.3	450.84	435.36	1078.2	116.07	314.94	978.74	297.32	575.54	708.06	468.65	640.24	654.45	410.2	589.4	620.06	449.76	621.28	740.63	428.68	616.33	529.96	425.44	623.3	515.31	289.93	649.97	283.17	421.86	735.78	255.43	430.07	686.76	216.21	409.85	698.34	323.52	440.1	783.42	152.61	417.9	783.89	180.2	332.39	757.72	68.756	353.9	787.11	50.87	326.52	778.47	48.409	391.22	917.06	129.54	457.51	946.5	165.54	344.5	979.77	217.09	394.9	364.99	702.8	98.463	424.75	612.41	121.74	352.57	608.87	119.17	442.63	699.43	99.474	333.99	514.9	130.32	217.15	337.7	140.86	266.27	263.96	141.35	197.92	269.94	161.7	281.97	331.7	126.66	191.09	123.63	173.91	234.69	135.76	258.02	126.9	81.129	231.81	140.41	54.004	262.33	125.23	54.172	202.74	301.13	37.664	131.68	335.74	46.475	249.11	395.09	50.017	189.74	455.02	1550.5	280.04	333.58	1279.5	280.36
399	1.6583	598.22	1239.3	282.07	513.11	1500.5	438.13	498.93	1521.4	116.33	517.02	1809.8	271.32	537.42	991.16	406.84	529.66	998.96	156.89	333.63	1008.8	333.22	332.3	1019.3	242.66	467.16	905.64	474.59	424.2	928.87	89.241	445.96	1074.2	451.18	440.73	1077.3	116.34	320.45	977.61	297.65	582.08	707.7	468.5	646.8	654.28	409.89	596.12	619.74	449.52	627.67	740.41	428.44	623.04	529.53	425.35	629.89	514.95	290.04	655.9	282.53	421.64	741.65	254.5	429.63	692.46	215.49	409.52	704.49	322.7	439.78	788.77	151.68	417.37	789.22	179.18	331.83	762.71	67.956	353.42	792	49.883	326.08	783.34	47.631	390.79	922.23	128.28	456.88	951.8	163.87	343.81	985.31	215.37	394.08	369.85	702.37	98.353	429.19	611.69	121.68	357	608.36	119.16	447.31	698.67	99.459	338.05	514.43	130.28	219.78	338.15	140.75	268.26	264	141.28	199.97	270.56	161.57	284.55	331.59	126.61	191.77	124.32	173.82	235.46	136.15	257.95	127.23	82.141	231.72	140.6	55.011	262.27	125.43	55.153	202.69	301.22	37.644	131.69	335.9	46.441	249.08	395.23	49.726	189.72	460.43	1549.5	280.89	338.95	1278.5	280.85
400	1.6625	603.6	1238.2	282.66	518.49	1499.3	438.99	504.37	1520.6	117.2	522.22	1808.8	272.38	543.02	990.29	407.05	535.15	998.05	157.09	339.12	1007.6	333.58	337.79	1018.3	243.02	473	904.77	474.81	429.46	928.09	89.379	451.33	1073	451.52	446.14	1076.3	116.61	326	976.49	297.98	588.7	707.41	468.36	653.49	654.2	409.63	602.94	619.5	449.27	634.17	740.26	428.27	629.82	529.14	425.26	636.6	514.65	290.19	661.59	281.89	421.39	747.23	253.44	429.12	697.82	214.71	409.14	710.46	321.79	439.42	793.69	150.59	416.78	794.14	177.98	331.19	767.13	67.071	352.88	796.28	48.75	325.58	787.58	46.745	390.3	926.89	126.67	456.2	956.67	161.77	343.07	990.49	213.15	393.2	374.8	701.95	98.241	433.73	610.97	121.61	361.53	607.85	119.16	452.08	697.93	99.455	342.21	513.95	130.23	222.5	338.63	140.6	270.32	264.06	141.19	202.08	271.22	161.42	287.22	331.49	126.54	192.48	125.07	173.7	236.26	136.58	257.85	127.58	83.241	231.59	140.8	56.109	262.19	125.65	56.216	202.6	301.31	37.62	131.69	336.07	46.419	249.06	395.38	49.434	189.7	465.86	1548.5	281.77	344.33	1277.6	281.35
